<?xml version="1.0" encoding="UTF-8"?>
<svg xmlns="http://www.w3.org/2000/svg" xmlns:xlink="http://www.w3.org/1999/xlink" viewBox="0 0 128 128" width="128px" height="128px">
<g id="surface213902975">
<path style=" stroke:none;fill-rule:nonzero;fill:rgb(90.588236%,29.803923%,23.529412%);fill-opacity:1;" d="M 88.617188 4 C 88.453125 4.007812 88.328125 4.050781 88.242188 4.132812 L 73.382812 21.78125 L 70.351562 32.203125 C 68.292969 32.136719 66.164062 32.109375 63.984375 32.109375 C 48.539062 32.109375 36 33.746094 36 35.773438 C 36 40.613281 91.960938 40.613281 91.960938 35.773438 C 91.960938 34.273438 85.261719 33.007812 75.601562 32.40625 L 78 23.828125 L 91.898438 7.109375 L 91.921875 7.085938 C 92.234375 6.761719 91.625 5.789062 90.632812 4.9375 C 89.890625 4.296875 89.105469 3.980469 88.617188 4 Z M 69.210938 36.304688 L 69.15625 36.46875 C 69.132812 36.488281 69.132812 36.515625 69.132812 36.539062 C 69.132812 36.839844 70.34375 37.085938 71.820312 37.085938 C 73.296875 37.085938 74.515625 36.839844 74.515625 36.539062 L 74.5625 36.351562 C 74.949219 36.492188 75.164062 36.652344 75.164062 36.835938 C 75.164062 37.320312 73.664062 37.714844 71.796875 37.695312 C 69.980469 37.695312 68.476562 37.328125 68.476562 36.84375 C 68.476562 36.636719 68.773438 36.445312 69.210938 36.304688 Z M 91.648438 37.679688 C 84.246094 41.628906 43.800781 41.65625 36.367188 37.734375 L 39.65625 66.664062 C 41.085938 62.050781 44.695312 55.824219 49.34375 53.9375 C 50.867188 53.3125 52.414062 53.316406 53.867188 54.148438 C 55.128906 54.839844 56.191406 56.292969 56.3125 56.867188 C 56.605469 58.367188 55.832031 58.960938 55.226562 58.960938 C 54.5 58.960938 53.941406 57.90625 53.578125 57.28125 C 52.585938 55.597656 51.085938 55.523438 49.484375 56.632812 C 47.8125 57.785156 46.359375 59.722656 45.34375 61.40625 C 44.109375 63.433594 43.066406 65.671875 42.4375 67.90625 C 42.074219 69.199219 41.742188 71.269531 42.296875 72.492188 C 42.539062 73 42.898438 73.320312 43.484375 73.320312 C 44.695312 73.320312 46.457031 71.800781 47.304688 70.992188 C 48.394531 69.957031 49.796875 68.339844 50.328125 67.304688 L 51.59375 63.734375 C 52.222656 62.167969 53.984375 62.441406 53.984375 63.734375 C 53.984375 66.085938 53.09375 66.871094 51.570312 71.734375 C 50.167969 76.230469 49.726562 77.6875 49.726562 77.6875 C 49.558594 78.332031 48.902344 79.414062 48.203125 79.414062 C 47.910156 79.414062 47.699219 79.316406 47.578125 79.132812 C 47.335938 78.808594 47.359375 77.917969 47.382812 77.6875 C 47.429688 76.953125 48.90625 72.566406 49.148438 71.875 C 48.664062 72.382812 48.15625 72.894531 47.601562 73.398438 C 46.292969 74.574219 44.191406 76.117188 42.398438 76.117188 C 41.574219 76.117188 41.046875 75.90625 40.539062 75.5625 L 42.375 93.914062 C 42.859375 95.066406 51.867188 97.859375 63.726562 97.859375 C 75.609375 97.859375 84.609375 95.046875 85.070312 93.914062 L 87.710938 72.109375 C 86.332031 73.308594 84.738281 74.789062 82.96875 75.523438 C 81.660156 76.054688 78.757812 76.394531 78.757812 74.203125 C 78.757812 73.003906 80.960938 70.792969 82.242188 69.25 C 82.582031 68.859375 83.375 67.890625 83.375 67.382812 C 83.375 66.714844 81.925781 66.867188 80.546875 67.953125 C 79.769531 68.578125 79.042969 69.410156 78.4375 70.195312 C 77.398438 71.578125 76.84375 72.773438 76.382812 73.765625 C 74.882812 77.039062 75.390625 75.746094 74.179688 78.835938 C 72.96875 81.902344 73.164062 81.554688 72.921875 82.0625 C 72.707031 82.503906 72.390625 82.875 71.953125 83.101562 C 71.492188 83.332031 70.863281 83.308594 70.476562 83.03125 C 70.261719 82.890625 70.15625 82.589844 70.15625 82.179688 C 70.15625 81.972656 70.1875 81.761719 70.234375 81.554688 C 70.597656 80.148438 72.125 77.382812 73.867188 73.648438 C 74.253906 72.796875 74.105469 73.050781 74.054688 73.117188 C 72.554688 74.5 71.414062 75.171875 70.570312 75.539062 C 69.167969 76.140625 67.421875 76.136719 67.0625 74.59375 C 67.039062 74.5 67.039062 74.40625 67.015625 74.3125 C 64.160156 76.433594 61.136719 77.007812 62.179688 72.445312 C 61.066406 74.335938 59.125 75.882812 56.75 75.882812 C 55.757812 75.882812 55.03125 75.5625 54.671875 74.710938 C 54.117188 73.441406 54.984375 71.269531 55.78125 69.21875 C 56.191406 68.183594 56.753906 66.9375 57.507812 65.484375 C 57.894531 64.699219 58.519531 64.238281 59.34375 64.445312 C 59.488281 64.492188 59.613281 64.542969 59.734375 64.609375 C 60.363281 65.023438 60.121094 65.640625 59.804688 66.265625 C 58.882812 67.992188 58.085938 69.261719 57.554688 71.0625 C 57.339844 71.824219 57.066406 73.140625 57.914062 73.140625 C 58.492188 73.140625 59.050781 72.953125 59.585938 72.585938 C 60.699219 71.800781 61.59375 70.628906 62.273438 69.476562 C 62.757812 68.648438 63.339844 67.566406 63.632812 66.640625 C 63.753906 66.25 63.902344 65.878906 64.070312 65.53125 C 64.339844 64.957031 64.695312 64.359375 65.328125 64.359375 C 65.644531 64.359375 65.90625 64.476562 66.101562 64.703125 C 66.511719 65.210938 66.421875 65.734375 66.203125 66.289062 C 65.71875 67.582031 65.066406 68.738281 64.53125 70.140625 C 64.214844 70.949219 63.875 71.984375 63.875 72.835938 C 63.875 73.621094 64.769531 73.433594 65.523438 73.109375 C 66.101562 72.855469 66.683594 72.46875 67.171875 72.078125 C 67.464844 70.949219 67.386719 71.199219 73.5625 56.351562 C 73.878906 55.589844 74.460938 55.265625 75.039062 55.265625 C 75.332031 55.265625 75.570312 55.363281 75.8125 55.523438 C 76.222656 55.824219 76.230469 56.460938 76.0625 56.945312 C 75.894531 57.386719 75.914062 57.246094 74.96875 59.367188 C 73.707031 62.15625 72.890625 64.167969 71.773438 66.726562 C 71.3125 67.785156 69.910156 71.082031 69.671875 71.867188 C 69.527344 72.375 69.355469 73.203125 69.914062 73.203125 C 71.222656 73.203125 74.585938 70.179688 75.507812 69.28125 C 75.554688 69.214844 75.628906 69.1875 75.726562 69.140625 C 75.871094 68.699219 76.011719 68.292969 76.132812 67.875 C 76.472656 67 76.789062 65.976562 77.421875 65.265625 C 77.613281 65.035156 77.832031 64.898438 78.070312 64.898438 C 78.746094 64.898438 79.085938 65.171875 79.085938 65.820312 C 79.085938 66.074219 78.921875 66.996094 78.820312 67.25 C 79.160156 66.90625 79.519531 66.5625 79.90625 66.21875 C 83.539062 63.015625 86.125 64.648438 86.125 66.265625 C 86.125 67.96875 83.972656 70.339844 82.789062 71.65625 C 82.402344 72.097656 81.601562 72.902344 81.578125 73.132812 C 81.578125 73.433594 81.792969 73.554688 82.109375 73.554688 C 82.59375 73.554688 83.660156 72.746094 84.046875 72.46875 C 85.257812 71.570312 86.898438 70.1875 88.0625 69.21875 Z M 43.71875 96.125 L 47.328125 101.984375 L 48.734375 120.289062 C 48.734375 122.339844 55.582031 124 64.007812 124 C 72.433594 124 79.28125 122.339844 79.28125 120.289062 L 80.398438 101.796875 L 83.804688 96.125 C 74.214844 99.976562 53.695312 100.113281 43.71875 96.125 Z M 43.71875 96.125 "/>
</g>
</svg>
